<svg xmlns="http://www.w3.org/2000/svg" width="1600" height="568" style="background:#0d1117;font-family:'Courier New',monospace">
<path d="M 72.0,136.1 A 63.9,63.9 0 0 1 72.0,263.9" fill="none" stroke="#4A90D9" stroke-width="1.8"  opacity="0.60"/>
<path d="M 72.0,107.2 A 92.8,92.8 0 0 1 72.0,292.8" fill="none" stroke="#FFE066" stroke-width="1.8"  opacity="0.75"/>
<path d="M 72.0,57.8 A 142.2,142.2 0 0 1 72.0,342.2" fill="none" stroke="#C87941" stroke-width="1.8" stroke-dasharray="2,5" opacity="0.55"/>
<path d="M 206.3,32.0 A 215.1,215.1 0 0 1 206.3,368.0" fill="none" stroke="#5A6880" stroke-width="1.8"  opacity="0.60"/>
<path d="M 304.2,32.0 A 286.6,286.6 0 0 1 304.2,368.0" fill="none" stroke="#4A90D9" stroke-width="1.8"  opacity="0.60"/>
<path d="M 385.9,32.0 A 356.1,356.1 0 0 1 385.9,368.0" fill="none" stroke="#5A6880" stroke-width="1.8"  opacity="0.60"/>
<path d="M 465.5,32.0 A 427.8,427.8 0 0 1 465.5,368.0" fill="none" stroke="#5A6880" stroke-width="1.8"  opacity="0.60"/>
<line x1="72" y1="200" x2="507.8" y2="200" stroke="#3A4560" stroke-width="0.6" opacity="0.35"/>
<line x1="85.3" y1="196" x2="85.3" y2="204" stroke="#3A4560" stroke-width="1" opacity="0.7"/>
<text x="85.3" y="213" text-anchor="middle" font-size="8" fill="#9BA3AD" opacity="0.65">0.1 AU</text>
<line x1="108.6" y1="196" x2="108.6" y2="204" stroke="#3A4560" stroke-width="1" opacity="0.7"/>
<text x="108.6" y="213" text-anchor="middle" font-size="8" fill="#9BA3AD" opacity="0.65">0.3 AU</text>
<line x1="168.8" y1="196" x2="168.8" y2="204" stroke="#3A4560" stroke-width="1" opacity="0.7"/>
<text x="168.8" y="213" text-anchor="middle" font-size="8" fill="#9BA3AD" opacity="0.65">1 AU</text>
<line x1="265.6" y1="196" x2="265.6" y2="204" stroke="#3A4560" stroke-width="1" opacity="0.7"/>
<text x="265.6" y="213" text-anchor="middle" font-size="8" fill="#9BA3AD" opacity="0.65">3 AU</text>
<line x1="406.9" y1="196" x2="406.9" y2="204" stroke="#3A4560" stroke-width="1" opacity="0.7"/>
<text x="406.9" y="213" text-anchor="middle" font-size="8" fill="#9BA3AD" opacity="0.65">10 AU</text>
<circle cx="72" cy="200" r="8" fill="#FFE066" opacity="0.95"/>
<text x="60" y="204" text-anchor="end" font-size="9" fill="#FFE066" opacity="0.85">Star A  G5 V</text>
<circle cx="72.0" cy="136.1" r="7" fill="#4A90D9"/>
<ellipse cx="72.0" cy="136.1" rx="10" ry="2" fill="none" stroke="#4A90D9" stroke-width="1.5" opacity="0.55"/>
<text x="72.0" y="128.1" text-anchor="middle" font-size="8" fill="#9BA3AD" opacity="0.85">1</text>
<circle cx="72.0" cy="107.2" r="8" fill="none" stroke="#FFE066" stroke-width="2"/>
<circle cx="72.0" cy="107.2" r="4" fill="#4CAF50"/>
<text x="72.0" y="99.2" text-anchor="middle" font-size="8" fill="#FFE066" opacity="0.85">2</text>
<rect x="67.0" y="56.8" width="11" height="3" rx="2" fill="#C87941"/>
<text x="72.0" y="49.8" text-anchor="middle" font-size="8" fill="#9BA3AD" opacity="0.85">3</text>
<circle cx="206.3" cy="32.0" r="4" fill="#5A6880"/>
<text x="206.3" y="24.0" text-anchor="middle" font-size="8" fill="#9BA3AD" opacity="0.85">4</text>
<circle cx="304.2" cy="32.0" r="9" fill="#4A90D9"/>
<ellipse cx="304.2" cy="32.0" rx="12" ry="2" fill="none" stroke="#4A90D9" stroke-width="1.5" opacity="0.55"/>
<text x="304.2" y="24.0" text-anchor="middle" font-size="8" fill="#9BA3AD" opacity="0.85">5</text>
<circle cx="385.9" cy="32.0" r="4" fill="#5A6880"/>
<text x="385.9" y="24.0" text-anchor="middle" font-size="8" fill="#9BA3AD" opacity="0.85">6</text>
<circle cx="465.5" cy="32.0" r="4" fill="#5A6880"/>
<text x="465.5" y="24.0" text-anchor="middle" font-size="8" fill="#9BA3AD" opacity="0.85">7</text>
<text x="800" y="40" text-anchor="middle" font-size="11" fill="#C9D1D9" opacity="0.8">Ardenne  system   UWP C334352-9   1-star   age 4.59 Gyr</text>
<text x="1512" y="40" font-size="9" fill="#4A90D9" opacity="0.75">● GG</text>
<text x="1512" y="76" font-size="9" fill="#4CAF50" opacity="0.75">● inh</text>
<text x="1512" y="112" font-size="9" fill="#5A6880" opacity="0.75">● uninh</text>
<text x="1512" y="148" font-size="9" fill="#C87941" opacity="0.75">▬ belt</text>
<text x="1512" y="184" font-size="9" fill="#FFE066" opacity="0.75">◯ MW</text>
<text x="1512" y="220" font-size="9" fill="#FFA040" opacity="0.75">★ comp</text>
<line x1="0" y1="401" x2="1600" y2="401" stroke="#3A4560" stroke-width="0.8" opacity="0.45"/>
<text x="12" y="418" font-size="11" fill="#FFE066">Star A  G5 V  0.90 M☉  primary</text>
<line x1="12" y1="423" x2="1588" y2="423" stroke="#3A4560" stroke-width="0.5" opacity="0.40"/>
<text x="12" y="439" font-size="11" fill="#C9D1D9">1</text>
<text x="28" y="439" font-size="11" fill="#C9D1D9">1.60</text>
<text x="70" y="439" font-size="9" fill="#9BA3AD">0.580 AU</text>
<text x="132" y="439" font-size="9" fill="#9BA3AD">GG</text>
<text x="180" y="439" font-size="11" fill="#C9D1D9">GM9</text>
<text x="410" y="439" font-size="9" fill="#9BA3AD" opacity="0.85">boiling  8♦</text>
<text x="12" y="456" font-size="11" fill="#FFE066">2</text>
<text x="28" y="456" font-size="11" fill="#C9D1D9">2.81</text>
<text x="70" y="456" font-size="9" fill="#9BA3AD">0.943 AU</text>
<text x="132" y="456" font-size="9" fill="#9BA3AD">★MW terr</text>
<text x="180" y="456" font-size="11" fill="#FFE066">C334352-9</text>
<text x="280" y="456" font-size="9" fill="#9BA3AD">Lo</text>
<text x="410" y="456" font-size="9" fill="#9BA3AD" opacity="0.85">⌾ temperate  1♦</text>
<text x="12" y="473" font-size="11" fill="#C9D1D9">3</text>
<text x="28" y="473" font-size="11" fill="#C9D1D9">4.14</text>
<text x="70" y="473" font-size="9" fill="#9BA3AD">1.768 AU</text>
<text x="132" y="473" font-size="9" fill="#9BA3AD">belt</text>
<text x="180" y="473" font-size="11" fill="#C9D1D9">Y000000-0</text>
<text x="410" y="473" font-size="9" fill="#9BA3AD" opacity="0.85">frozen</text>
<text x="12" y="490" font-size="11" fill="#C9D1D9">4</text>
<text x="28" y="490" font-size="11" fill="#C9D1D9">5.36</text>
<text x="70" y="490" font-size="9" fill="#9BA3AD">3.664 AU</text>
<text x="132" y="490" font-size="9" fill="#9BA3AD">terr</text>
<text x="180" y="490" font-size="11" fill="#C9D1D9">Y745000-0</text>
<text x="410" y="490" font-size="9" fill="#9BA3AD" opacity="0.85">frozen  2♦</text>
<text x="12" y="507" font-size="11" fill="#C9D1D9">5</text>
<text x="28" y="507" font-size="11" fill="#C9D1D9">6.33</text>
<text x="70" y="507" font-size="9" fill="#9BA3AD">6.784 AU</text>
<text x="132" y="507" font-size="9" fill="#9BA3AD">GG</text>
<text x="180" y="507" font-size="11" fill="#C9D1D9">GLC</text>
<text x="410" y="507" font-size="9" fill="#9BA3AD" opacity="0.85">frozen  8♦</text>
<text x="12" y="524" font-size="11" fill="#C9D1D9">6</text>
<text x="28" y="524" font-size="11" fill="#C9D1D9">7.18</text>
<text x="70" y="524" font-size="9" fill="#9BA3AD">11.800 AU</text>
<text x="132" y="524" font-size="9" fill="#9BA3AD">terr</text>
<text x="180" y="524" font-size="11" fill="#C9D1D9">Y678000-0</text>
<text x="410" y="524" font-size="9" fill="#9BA3AD" opacity="0.85">frozen</text>
<text x="12" y="541" font-size="11" fill="#C9D1D9">7</text>
<text x="28" y="541" font-size="11" fill="#C9D1D9">8.02</text>
<text x="70" y="541" font-size="9" fill="#9BA3AD">20.400 AU</text>
<text x="132" y="541" font-size="9" fill="#9BA3AD">terr</text>
<text x="180" y="541" font-size="11" fill="#C9D1D9">Y100000-0</text>
<text x="410" y="541" font-size="9" fill="#9BA3AD" opacity="0.85">frozen</text>
</svg>