<svg xmlns="http://www.w3.org/2000/svg" width="1600" height="900" style="background:#0d1117;font-family:'Courier New',monospace">
<path d="M 72.0,185.7 A 14.3,14.3 0 0 1 72.0,214.3" fill="none" stroke="#FFA040" stroke-width="1.2" stroke-dasharray="8,6" opacity="0.40"/>
<path d="M 72.0,169.3 A 30.7,30.7 0 0 1 72.0,230.7" fill="none" stroke="#4CAF50" stroke-width="1.8"  opacity="0.60"/>
<path d="M 72.0,145.5 A 54.5,54.5 0 0 1 72.0,254.5" fill="none" stroke="#5A6880" stroke-width="1.8"  opacity="0.60"/>
<path d="M 72.0,81.7 A 118.3,118.3 0 0 1 72.0,318.3" fill="none" stroke="#4A90D9" stroke-width="1.8"  opacity="0.60"/>
<path d="M 465.5,32.0 A 427.8,427.8 0 0 1 465.5,368.0" fill="none" stroke="#FFA040" stroke-width="1.2" stroke-dasharray="8,6" opacity="0.40"/>
<line x1="72" y1="200" x2="507.8" y2="200" stroke="#3A4560" stroke-width="0.6" opacity="0.35"/>
<line x1="78.2" y1="196" x2="78.2" y2="204" stroke="#3A4560" stroke-width="1" opacity="0.7"/>
<text x="78.2" y="213" text-anchor="middle" font-size="8" fill="#9BA3AD" opacity="0.65">0.1 AU</text>
<line x1="89.2" y1="196" x2="89.2" y2="204" stroke="#3A4560" stroke-width="1" opacity="0.7"/>
<text x="89.2" y="213" text-anchor="middle" font-size="8" fill="#9BA3AD" opacity="0.65">0.3 AU</text>
<line x1="117.3" y1="196" x2="117.3" y2="204" stroke="#3A4560" stroke-width="1" opacity="0.7"/>
<text x="117.3" y="213" text-anchor="middle" font-size="8" fill="#9BA3AD" opacity="0.65">1 AU</text>
<line x1="162.7" y1="196" x2="162.7" y2="204" stroke="#3A4560" stroke-width="1" opacity="0.7"/>
<text x="162.7" y="213" text-anchor="middle" font-size="8" fill="#9BA3AD" opacity="0.65">3 AU</text>
<line x1="228.9" y1="196" x2="228.9" y2="204" stroke="#3A4560" stroke-width="1" opacity="0.7"/>
<text x="228.9" y="213" text-anchor="middle" font-size="8" fill="#9BA3AD" opacity="0.65">10 AU</text>
<line x1="296.6" y1="196" x2="296.6" y2="204" stroke="#3A4560" stroke-width="1" opacity="0.7"/>
<text x="296.6" y="213" text-anchor="middle" font-size="8" fill="#9BA3AD" opacity="0.65">30 AU</text>
<line x1="373.9" y1="196" x2="373.9" y2="204" stroke="#3A4560" stroke-width="1" opacity="0.7"/>
<text x="373.9" y="213" text-anchor="middle" font-size="8" fill="#9BA3AD" opacity="0.65">100 AU</text>
<line x1="445.3" y1="196" x2="445.3" y2="204" stroke="#3A4560" stroke-width="1" opacity="0.7"/>
<text x="445.3" y="213" text-anchor="middle" font-size="8" fill="#9BA3AD" opacity="0.65">300 AU</text>
<circle cx="72" cy="200" r="8" fill="#FFE066" opacity="0.95"/>
<text x="60" y="204" text-anchor="end" font-size="9" fill="#FFE066" opacity="0.85">Star A  K9 V</text>
<text x="72.0" y="189.7" text-anchor="middle" font-size="12" fill="#FFA040">★</text>
<text x="72.0" y="176.7" text-anchor="middle" font-size="8" fill="#FFA040" opacity="0.85">Aa</text>
<circle cx="72.0" cy="169.3" r="4" fill="#4CAF50"/>
<text x="72.0" y="161.3" text-anchor="middle" font-size="8" fill="#9BA3AD" opacity="0.85">1</text>
<circle cx="72.0" cy="145.5" r="4" fill="#5A6880"/>
<text x="72.0" y="137.5" text-anchor="middle" font-size="8" fill="#9BA3AD" opacity="0.85">2</text>
<circle cx="72.0" cy="81.7" r="10" fill="#4A90D9"/>
<ellipse cx="72.0" cy="81.7" rx="13" ry="2" fill="none" stroke="#4A90D9" stroke-width="1.5" opacity="0.55"/>
<text x="72.0" y="73.7" text-anchor="middle" font-size="8" fill="#9BA3AD" opacity="0.85">3</text>
<text x="465.5" y="36.0" text-anchor="middle" font-size="12" fill="#FFA040">★</text>
<text x="465.5" y="23.0" text-anchor="middle" font-size="8" fill="#FFA040" opacity="0.85">B</text>
<text x="800" y="40" text-anchor="middle" font-size="11" fill="#C9D1D9" opacity="0.8">Dark Test  system   UWP C2766A7-6   3-star   age 5.40 Gyr</text>
<text x="1512" y="40" font-size="9" fill="#4A90D9" opacity="0.75">● GG</text>
<text x="1512" y="76" font-size="9" fill="#4CAF50" opacity="0.75">● inh</text>
<text x="1512" y="112" font-size="9" fill="#5A6880" opacity="0.75">● uninh</text>
<text x="1512" y="148" font-size="9" fill="#C87941" opacity="0.75">▬ belt</text>
<text x="1512" y="184" font-size="9" fill="#FFE066" opacity="0.75">◯ MW</text>
<text x="1512" y="220" font-size="9" fill="#FFA040" opacity="0.75">★ comp</text>
<line x1="0" y1="400" x2="1600" y2="400" stroke="#3A4560" stroke-width="0.5" opacity="0.25"/>
<path d="M 113.1,432.0 A 173.0,173.0 0 0 1 113.1,768.0" fill="none" stroke="#FFE066" stroke-width="1.8"  opacity="0.75"/>
<path d="M 269.7,432.0 A 259.4,259.4 0 0 1 269.7,768.0" fill="none" stroke="#4A90D9" stroke-width="1.8"  opacity="0.60"/>
<path d="M 465.5,432.0 A 427.8,427.8 0 0 1 465.5,768.0" fill="none" stroke="#5A6880" stroke-width="1.8"  opacity="0.60"/>
<line x1="72" y1="600" x2="507.8" y2="600" stroke="#3A4560" stroke-width="0.6" opacity="0.35"/>
<line x1="115.1" y1="596" x2="115.1" y2="604" stroke="#3A4560" stroke-width="1" opacity="0.7"/>
<text x="115.1" y="613" text-anchor="middle" font-size="8" fill="#9BA3AD" opacity="0.65">0.1 AU</text>
<line x1="190.6" y1="596" x2="190.6" y2="604" stroke="#3A4560" stroke-width="1" opacity="0.7"/>
<text x="190.6" y="613" text-anchor="middle" font-size="8" fill="#9BA3AD" opacity="0.65">0.3 AU</text>
<line x1="385.4" y1="596" x2="385.4" y2="604" stroke="#3A4560" stroke-width="1" opacity="0.7"/>
<text x="385.4" y="613" text-anchor="middle" font-size="8" fill="#9BA3AD" opacity="0.65">1 AU</text>
<circle cx="72" cy="600" r="8" fill="#FFA040" opacity="0.95"/>
<text x="60" y="604" text-anchor="end" font-size="9" fill="#FFA040" opacity="0.85">Star B  M0 V</text>
<circle cx="113.1" cy="432.0" r="8" fill="none" stroke="#FFE066" stroke-width="1.8"/>
<circle cx="113.1" cy="432.0" r="4" fill="#4A90D9"/>
<ellipse cx="113.1" cy="432.0" rx="7" ry="2" fill="none" stroke="#4A90D9" stroke-width="1.5" opacity="0.55"/>
<text x="113.1" y="424.0" text-anchor="middle" font-size="8" fill="#FFE066" opacity="0.85">4</text>
<circle cx="269.7" cy="432.0" r="5" fill="#4A90D9"/>
<ellipse cx="269.7" cy="432.0" rx="8" ry="2" fill="none" stroke="#4A90D9" stroke-width="1.5" opacity="0.55"/>
<text x="269.7" y="424.0" text-anchor="middle" font-size="8" fill="#9BA3AD" opacity="0.85">5</text>
<circle cx="465.5" cy="432.0" r="4" fill="#5A6880"/>
<text x="465.5" y="424.0" text-anchor="middle" font-size="8" fill="#9BA3AD" opacity="0.85">6</text>
<line x1="0" y1="801" x2="1600" y2="801" stroke="#3A4560" stroke-width="0.8" opacity="0.45"/>
<text x="12" y="818" font-size="11" fill="#FFE066">Star A  K9 V  0.50 M☉  primary</text>
<line x1="12" y1="823" x2="521" y2="823" stroke="#3A4560" stroke-width="0.5" opacity="0.40"/>
<text x="12" y="839" font-size="11" fill="#C9D1D9">1</text>
<text x="28" y="839" font-size="11" fill="#C9D1D9">1.66</text>
<text x="70" y="839" font-size="9" fill="#9BA3AD">0.598 AU</text>
<text x="132" y="839" font-size="9" fill="#9BA3AD">terr</text>
<text x="180" y="839" font-size="11" fill="#C9D1D9">G550110-5</text>
<text x="280" y="839" font-size="9" fill="#9BA3AD">Gov 1  Law 0</text>
<text x="410" y="839" font-size="9" fill="#9BA3AD" opacity="0.85">frozen</text>
<text x="12" y="856" font-size="11" fill="#C9D1D9">2</text>
<text x="28" y="856" font-size="11" fill="#C9D1D9">3.50</text>
<text x="70" y="856" font-size="9" fill="#9BA3AD">1.300 AU</text>
<text x="132" y="856" font-size="9" fill="#9BA3AD">terr</text>
<text x="180" y="856" font-size="11" fill="#C9D1D9">Y100000-0</text>
<text x="410" y="856" font-size="9" fill="#9BA3AD" opacity="0.85">frozen  1♦</text>
<text x="12" y="873" font-size="11" fill="#C9D1D9">3</text>
<text x="28" y="873" font-size="11" fill="#C9D1D9">5.96</text>
<text x="70" y="873" font-size="9" fill="#9BA3AD">5.104 AU</text>
<text x="132" y="873" font-size="9" fill="#9BA3AD">GG</text>
<text x="180" y="873" font-size="11" fill="#C9D1D9">GLE</text>
<text x="410" y="873" font-size="9" fill="#9BA3AD" opacity="0.85">frozen  10♦</text>
<line x1="533" y1="801" x2="533" y2="900" stroke="#3A4560" stroke-width="0.6" opacity="0.30"/>
<text x="545" y="818" font-size="11" fill="#FFA040">Star B  M0 V  0.50 M☉  Orbit# 13.30 (691.60 AU)</text>
<line x1="545" y1="823" x2="1054" y2="823" stroke="#3A4560" stroke-width="0.5" opacity="0.40"/>
<text x="545" y="839" font-size="11" fill="#FFE066">4</text>
<text x="561" y="839" font-size="11" fill="#C9D1D9">1.22</text>
<text x="603" y="839" font-size="9" fill="#9BA3AD">0.466 AU</text>
<text x="665" y="839" font-size="9" fill="#9BA3AD">★MW GG</text>
<text x="713" y="839" font-size="11" fill="#FFE066">C2766A7-6</text>
<text x="813" y="839" font-size="9" fill="#9BA3AD">Ag  Ni</text>
<text x="943" y="839" font-size="9" fill="#9BA3AD" opacity="0.85">⌾ cold  1♦</text>
<text x="545" y="856" font-size="11" fill="#C9D1D9">5</text>
<text x="561" y="856" font-size="11" fill="#C9D1D9">2.25</text>
<text x="603" y="856" font-size="9" fill="#9BA3AD">0.775 AU</text>
<text x="665" y="856" font-size="9" fill="#9BA3AD">GG</text>
<text x="713" y="856" font-size="11" fill="#C9D1D9">GS4</text>
<text x="943" y="856" font-size="9" fill="#9BA3AD" opacity="0.85">frozen  3♦</text>
<text x="545" y="873" font-size="11" fill="#C9D1D9">6</text>
<text x="561" y="873" font-size="11" fill="#C9D1D9">3.96</text>
<text x="603" y="873" font-size="9" fill="#9BA3AD">1.576 AU</text>
<text x="665" y="873" font-size="9" fill="#9BA3AD">terr</text>
<text x="713" y="873" font-size="11" fill="#C9D1D9">Y636000-0</text>
<text x="943" y="873" font-size="9" fill="#9BA3AD" opacity="0.85">frozen  2♦</text>
<line x1="1066" y1="801" x2="1066" y2="900" stroke="#3A4560" stroke-width="0.6" opacity="0.30"/>
<text x="1078" y="818" font-size="11" fill="#FFA040">Star Aa  M6 V  0.14 M☉  Orbit# 0.22 (0.24 AU)</text>
<line x1="1078" y1="823" x2="1587" y2="823" stroke="#3A4560" stroke-width="0.5" opacity="0.40"/>
</svg>